<svg width="53" height="52" viewBox="0 0 53 52" fill="none" xmlns="http://www.w3.org/2000/svg">
<path d="M26.5157 51.8029C40.7318 51.8029 52.2561 40.2786 52.2561 26.0625C52.2561 11.8465 40.7318 0.322144 26.5157 0.322144C12.2997 0.322144 0.77533 11.8465 0.77533 26.0625C0.77533 40.2786 12.2997 51.8029 26.5157 51.8029Z" fill="#1B76FF"/>
<path fill-rule="evenodd" clip-rule="evenodd" d="M13.1058 20.9688H17.7516V39.1299H13.1058C12.4063 39.1299 11.8392 38.5898 11.8392 37.9236V22.175C11.8392 21.5088 12.4063 20.9688 13.1058 20.9688Z" stroke="white" stroke-width="1.60838" stroke-linecap="round" stroke-linejoin="round"/>
<path fill-rule="evenodd" clip-rule="evenodd" d="M39.7796 35.7297C39.4855 37.9931 37.9732 39.1299 35.2848 39.1299H21.2172C19.3058 39.1299 17.7516 37.667 17.7516 35.8681V20.9905C22.2128 20.5556 24.4434 18.9982 24.4434 14.8104V12.8035C24.4434 10.6883 26.2439 8.97351 28.4649 8.97351C29.3113 8.97351 30.1361 9.2278 30.8219 9.70026C31.7671 10.3526 32.3693 11.5882 32.3693 13.3673V19.1765C32.3693 19.6707 33.2058 20.0759 34.0424 20.0759H38.5298C40.4202 20.0759 41.9535 21.4992 41.9955 23.2685C42.0235 24.448 41.2849 28.0991 39.7796 35.7297Z" stroke="white" stroke-width="1.60838" stroke-linecap="round" stroke-linejoin="round"/>
</svg>
