<svg width="52" height="52" viewBox="0 0 52 52" fill="none" xmlns="http://www.w3.org/2000/svg">
<path d="M26.0001 51.8788C40.2925 51.8788 51.8788 40.2925 51.8788 26.0001C51.8788 11.7076 40.2925 0.121338 26.0001 0.121338C11.7076 0.121338 0.121338 11.7076 0.121338 26.0001C0.121338 40.2925 11.7076 51.8788 26.0001 51.8788Z" fill="#FF6D35"/>
<path d="M35.5505 37.6729H16.4495C14.1149 37.6729 12.2048 35.7628 12.2048 33.4282V18.5718C12.2048 16.2373 14.1149 14.3271 16.4495 14.3271H35.5505C37.8851 14.3271 39.7952 16.2373 39.7952 18.5718V33.4282C39.7952 35.7628 37.8851 37.6729 35.5505 37.6729Z" stroke="white" stroke-width="2" stroke-miterlimit="10" stroke-linecap="round" stroke-linejoin="round"/>
<path d="M12.2048 19.6329L26 28.1223L39.7952 19.6329" stroke="white" stroke-width="2" stroke-miterlimit="10" stroke-linecap="round" stroke-linejoin="round"/>
</svg>
