<svg width="52" height="52" viewBox="0 0 52 52" fill="none" xmlns="http://www.w3.org/2000/svg">
<path d="M26.1407 51.8029C40.3567 51.8029 51.8811 40.2786 51.8811 26.0625C51.8811 11.8465 40.3567 0.322144 26.1407 0.322144C11.9246 0.322144 0.400269 11.8465 0.400269 26.0625C0.400269 40.2786 11.9246 51.8029 26.1407 51.8029Z" fill="#FFCD1D"/>
<path d="M26.1406 9.84473V42.2804" stroke="white" stroke-width="2.41257" stroke-linecap="round" stroke-linejoin="round"/>
<path d="M33.5124 15.7421H22.4548C21.0862 15.7421 19.7737 16.2857 18.8059 17.2535C17.8382 18.2211 17.2946 19.5337 17.2946 20.9022C17.2946 22.2708 17.8382 23.5833 18.8059 24.5511C19.7737 25.5188 21.0862 26.0625 22.4548 26.0625H29.8265C31.195 26.0625 32.5076 26.6061 33.4753 27.5739C34.4431 28.5415 34.9867 29.8541 34.9867 31.2227C34.9867 32.5913 34.4431 33.9038 33.4753 34.8715C32.5076 35.8392 31.195 36.3829 29.8265 36.3829H17.2946" stroke="white" stroke-width="2.41257" stroke-linecap="round" stroke-linejoin="round"/>
</svg>
