<svg width="148" height="41" viewBox="0 0 148 41" fill="none" xmlns="http://www.w3.org/2000/svg">
<path d="M57.6049 17.9054C57.2583 17.2668 56.7565 16.7834 56.0997 16.455C55.4611 16.1084 54.704 15.935 53.8283 15.935C52.3139 15.935 51.1008 16.4368 50.1885 17.4402C49.2762 18.4254 48.8202 19.7482 48.8202 21.4084C48.8202 23.1781 49.2946 24.5647 50.2432 25.5681C51.2102 26.5533 52.5329 27.0459 54.2114 27.0459C55.3608 27.0459 56.3278 26.754 57.1123 26.1702C57.9151 25.5863 58.4988 24.7471 58.8638 23.6524H52.9252V20.2042H63.1056V24.5555C62.759 25.7232 62.166 26.8088 61.3268 27.8122C60.5058 28.8156 59.4567 29.6276 58.1796 30.2478C56.9025 30.8681 55.4611 31.1783 53.8556 31.1783C51.9582 31.1783 50.2614 30.7678 48.7654 29.9468C47.2876 29.1076 46.1291 27.949 45.2899 26.4712C44.4688 24.9934 44.0583 23.3058 44.0583 21.4084C44.0583 19.5109 44.4688 17.8233 45.2899 16.3455C46.1291 14.8495 47.2876 13.6909 48.7654 12.8699C50.2432 12.0307 51.9308 11.6111 53.8283 11.6111C56.1271 11.6111 58.061 12.1676 59.63 13.2804C61.2173 14.3933 62.2664 15.935 62.7772 17.9054H57.6049ZM70.3775 18.3159C70.9248 17.4767 71.609 16.8199 72.43 16.3455C73.251 15.8529 74.1632 15.6066 75.1666 15.6066V20.56H73.8804C72.7128 20.56 71.8371 20.8155 71.2532 21.3263C70.6693 21.8189 70.3775 22.6946 70.3775 23.9535V31.0415H65.6978V15.7708H70.3775V18.3159ZM84.3546 31.2604C82.8585 31.2604 81.5085 30.9412 80.3043 30.3026C79.1184 29.664 78.1788 28.7518 77.4856 27.5659C76.8104 26.38 76.473 24.9934 76.473 23.4061C76.473 21.8371 76.8196 20.4597 77.5129 19.2738C78.2061 18.0696 79.1549 17.1483 80.3591 16.5097C81.5632 15.8711 82.9132 15.5519 84.4093 15.5519C85.9054 15.5519 87.2555 15.8711 88.4596 16.5097C89.6638 17.1483 90.6124 18.0696 91.3058 19.2738C91.999 20.4597 92.3457 21.8371 92.3457 23.4061C92.3457 24.9752 91.9899 26.3618 91.2784 27.5659C90.5851 28.7518 89.6272 29.664 88.4049 30.3026C87.2007 30.9412 85.8506 31.2604 84.3546 31.2604ZM84.3546 27.2101C85.2486 27.2101 86.0057 26.8817 86.626 26.2249C87.2645 25.5681 87.5839 24.6285 87.5839 23.4061C87.5839 22.1838 87.2737 21.2442 86.6534 20.5874C86.0513 19.9306 85.3033 19.6022 84.4093 19.6022C83.4971 19.6022 82.74 19.9306 82.1379 20.5874C81.5358 21.226 81.2348 22.1655 81.2348 23.4061C81.2348 24.6285 81.5267 25.5681 82.1105 26.2249C82.7126 26.8817 83.4606 27.2101 84.3546 27.2101ZM116.749 15.7708L112.616 31.0415H107.444L105.036 21.1347L102.546 31.0415H97.4009L93.2411 15.7708H97.9208L100.083 26.6902L102.655 15.7708H107.608L110.208 26.6354L112.343 15.7708H116.749ZM126.196 19.6569H123.679V31.0415H118.999V19.6569H117.302V15.7708H118.999V15.333C118.999 13.4538 119.537 12.0307 120.614 11.0637C121.69 10.0785 123.268 9.58594 125.348 9.58594C125.694 9.58594 125.95 9.59506 126.114 9.6133V13.5815C125.221 13.5267 124.591 13.6544 124.226 13.9646C123.861 14.2748 123.679 14.8312 123.679 15.634V15.7708H126.196V19.6569ZM143.994 15.7708L134.416 38.2936H129.38L132.883 30.5215L126.671 15.7708H131.898L135.429 25.3218L138.931 15.7708H143.994Z" fill="white"/>
<path d="M23.1565 13.1478C23.1565 9.07852 26.4552 5.77979 30.5244 5.77979H37.8924V13.1478C37.8924 17.217 34.5937 20.5157 30.5244 20.5157C26.4552 20.5157 23.1565 17.217 23.1565 13.1478Z" fill="#FF6D35"/>
<path d="M30.5243 38.193C26.4551 38.193 23.1564 34.8942 23.1564 30.825V23.457H30.5243C34.5936 23.457 37.8923 26.7558 37.8923 30.825C37.8923 34.8942 34.5936 38.193 30.5243 38.193Z" fill="#5CC97B"/>
<path d="M20.8348 21.168C20.8348 12.9913 14.7086 6.36279 7.15147 6.36279V30.5372C7.15147 34.6255 10.2146 37.9398 13.9932 37.9398C17.7718 37.9398 20.8348 34.6255 20.8348 30.5372V21.168Z" fill="#3D96F4"/>
</svg>
